<svg xmlns="http://www.w3.org/2000/svg" width="23.424" height="23.424" viewBox="0 0 23.424 23.424">
  <path id="Icon_ionic-ios-football" data-name="Icon ionic-ios-football" d="M15.087,3.375A11.712,11.712,0,1,0,26.8,15.087,11.71,11.71,0,0,0,15.087,3.375Zm7.168,4.544a10.056,10.056,0,0,1,1.273,1.548.206.206,0,0,1,.023.2l-.811,2.326a.224.224,0,0,1-.118.13l-3.238,1.475a.227.227,0,0,1-.236-.034l-3.187-2.68a.231.231,0,0,1-.079-.175V7.153a.225.225,0,0,1,.1-.186L18.145,5.5a.222.222,0,0,1,.2-.028A10.262,10.262,0,0,1,22.255,7.919ZM18.094,24.676a.208.208,0,0,1-.146.135,10.121,10.121,0,0,1-2.86.405,10.3,10.3,0,0,1-2.86-.405.233.233,0,0,1-.146-.135l-.923-2.421a.236.236,0,0,1,.011-.186l1.256-2.382a.228.228,0,0,1,.2-.118h4.927a.221.221,0,0,1,.2.118L19,22.069a.236.236,0,0,1,.011.186ZM14.3,7.165v3.553a.231.231,0,0,1-.079.175l-3.193,2.675a.227.227,0,0,1-.236.034L7.553,12.125A.222.222,0,0,1,7.435,12l-.811-2.32a.221.221,0,0,1,.023-.2,10.208,10.208,0,0,1,5.192-3.987.222.222,0,0,1,.2.028L14.2,6.99A.186.186,0,0,1,14.3,7.165ZM5.047,15.543,7.08,13.786a.225.225,0,0,1,.242-.034l2.951,1.34a.226.226,0,0,1,.124.152l.822,3.226a.269.269,0,0,1-.017.163L9.9,21.106a.219.219,0,0,1-.2.118L7.1,21.191a.235.235,0,0,1-.18-.09,10.063,10.063,0,0,1-1.954-5.372A.246.246,0,0,1,5.047,15.543ZM20.273,21.1l-1.3-2.466a.206.206,0,0,1-.017-.163l.822-3.226a.226.226,0,0,1,.124-.152l2.951-1.34a.236.236,0,0,1,.242.034l2.033,1.757a.228.228,0,0,1,.079.186A10.034,10.034,0,0,1,23.252,21.1a.219.219,0,0,1-.18.09l-2.6.034A.247.247,0,0,1,20.273,21.1Z" transform="translate(-3.375 -3.375)" fill="#fff"/>
</svg>
