<svg xmlns="http://www.w3.org/2000/svg" width="16.802" height="21.031" viewBox="0 0 16.802 21.031">
  <g id="Icon_ionic-ios-notifications-outline" data-name="Icon ionic-ios-notifications-outline" transform="translate(0 0)">
    <path id="Path_5" data-name="Path 5" d="M18.939,28.336a.681.681,0,0,0-.668.536,1.317,1.317,0,0,1-.263.573.993.993,0,0,1-.846.31,1.01,1.01,0,0,1-.846-.31,1.317,1.317,0,0,1-.263-.573.681.681,0,0,0-.668-.536h0a.685.685,0,0,0-.668.836,2.349,2.349,0,0,0,2.444,1.95,2.344,2.344,0,0,0,2.444-1.95.688.688,0,0,0-.668-.836Z" transform="translate(-8.776 -10.091)" fill="#fff"/>
    <path id="Path_6" data-name="Path 6" d="M23.366,19.505c-.809-1.067-2.4-1.693-2.4-6.471,0-4.9-2.166-6.875-4.184-7.348-.189-.047-.326-.11-.326-.31V5.224A1.289,1.289,0,0,0,15.193,3.93h-.032A1.289,1.289,0,0,0,13.9,5.224v.152c0,.194-.137.263-.326.31C11.55,6.164,9.39,8.13,9.39,13.035c0,4.778-1.593,5.4-2.4,6.471a1.043,1.043,0,0,0,.836,1.672H22.546A1.044,1.044,0,0,0,23.366,19.505Zm-2.05.3H9.059a.23.23,0,0,1-.173-.384,6.368,6.368,0,0,0,1.1-1.756,11.912,11.912,0,0,0,.752-4.636,8.061,8.061,0,0,1,1.1-4.563,3.373,3.373,0,0,1,2.034-1.451,1.842,1.842,0,0,0,.978-.552.416.416,0,0,1,.626-.011,1.9,1.9,0,0,0,.988.562A3.373,3.373,0,0,1,18.5,8.472a8.061,8.061,0,0,1,1.1,4.563,11.912,11.912,0,0,0,.752,4.636,6.441,6.441,0,0,0,1.13,1.782A.217.217,0,0,1,21.316,19.81Z" transform="translate(-6.775 -3.93)" fill="#fff"/>
  </g>
</svg>
