<svg xmlns="http://www.w3.org/2000/svg" xmlns:xlink="http://www.w3.org/1999/xlink" width="23.336" height="23.34" viewBox="0 0 23.336 23.34">
  <defs>
    <linearGradient id="linear-gradient" x1="-1.539" y1="-3.018" x2="-1.1" y2="-3.49" gradientUnits="objectBoundingBox">
      <stop offset="0" stop-color="#fd5"/>
      <stop offset="0.5" stop-color="#ff543e"/>
      <stop offset="1" stop-color="#c837ab"/>
    </linearGradient>
  </defs>
  <g id="instagram" transform="translate(0.07 0.038)">
    <path id="Path_52" data-name="Path 52" d="M1.452,1.582C-.376,3.481,0,5.5,0,11.628c0,5.09-.888,10.193,3.76,11.394,1.451.373,14.311.373,15.761,0a5,5,0,0,0,3.725-4.806c.03-.382.03-12.783,0-13.173A5.005,5.005,0,0,0,18.854.105,20.932,20.932,0,0,0,15.423,0C5.56,0,3.4-.436,1.452,1.582Z" transform="translate(0 0)" fill="url(#linear-gradient)"/>
    <path id="Path_53" data-name="Path 53" d="M11.728,3.139c-3.52,0-6.863-.313-8.14,2.964-.527,1.353-.451,3.111-.451,5.628,0,2.209-.071,4.284.451,5.627,1.274,3.279,4.644,2.965,8.138,2.965,3.371,0,6.847.351,8.139-2.965.528-1.367.451-3.1.451-5.627,0-3.356.185-5.523-1.443-7.15C17.225,2.932,15,3.139,11.724,3.139Zm-.77,1.548C18.3,4.675,19.236,3.859,18.72,15.2c-.183,4.011-3.237,3.571-6.991,3.571-6.845,0-7.042-.2-7.042-7.044,0-6.927.543-7.036,6.271-7.042Zm5.356,1.426a1.031,1.031,0,1,0,1.031,1.031A1.031,1.031,0,0,0,16.314,6.113ZM11.728,7.318a4.412,4.412,0,1,0,4.41,4.412,4.412,4.412,0,0,0-4.41-4.412Zm0,1.548c3.786,0,3.791,5.728,0,5.728S7.937,8.867,11.728,8.867Z" transform="translate(-0.098 -0.097)" fill="#fff"/>
  </g>
</svg>
