<svg id="location" xmlns="http://www.w3.org/2000/svg" width="13.801" height="15.702" viewBox="0 0 13.801 15.702">
  <g id="Group_88" data-name="Group 88" transform="translate(0)">
    <g id="Group_87" data-name="Group 87">
      <path id="Path_3" data-name="Path 3" d="M40.522,10.375c1.671-2.622,1.461-2.295,1.509-2.363a5.023,5.023,0,0,0,.93-2.921A5.06,5.06,0,1,0,33.8,8.049l1.482,2.326c-1.585.244-4.279.969-4.279,2.567,0,.583.38,1.413,2.192,2.06a14.52,14.52,0,0,0,4.709.7c3.313,0,6.9-.935,6.9-2.76C44.8,11.344,42.11,10.619,40.522,10.375ZM34.565,7.543l-.016-.023a4.14,4.14,0,1,1,6.735-.046c-.044.058.187-.3-3.384,5.3ZM37.9,14.782c-3.619,0-5.98-1.064-5.98-1.84,0-.522,1.213-1.38,3.9-1.714l1.69,2.652a.46.46,0,0,0,.776,0l1.69-2.652c2.689.334,3.9,1.193,3.9,1.714C43.881,13.712,41.54,14.782,37.9,14.782Z" transform="translate(-31)" fill="#fb596d"/>
    </g>
  </g>
  <g id="Group_90" data-name="Group 90" transform="translate(4.6 2.791)">
    <g id="Group_89" data-name="Group 89">
      <path id="Path_4" data-name="Path 4" d="M183.3,91a2.3,2.3,0,1,0,2.3,2.3A2.3,2.3,0,0,0,183.3,91Zm0,3.68a1.38,1.38,0,1,1,1.38-1.38A1.382,1.382,0,0,1,183.3,94.68Z" transform="translate(-181 -91)" fill="#fb596d"/>
    </g>
  </g>
</svg>
