<svg xmlns="http://www.w3.org/2000/svg" width="15.06" height="17.798" viewBox="0 0 15.06 17.798">
  <path id="Icon_ionic-md-notifications-outline" data-name="Icon ionic-md-notifications-outline" d="M13.2,6.476a6.185,6.185,0,0,1,1.023.192,4.36,4.36,0,0,1,3.323,4.272V16.4l.4.4.333.335H8.034l.333-.335.4-.4v-5.46a4.36,4.36,0,0,1,3.323-4.272,7.574,7.574,0,0,1,1.023-.192m.043-3.1A1.308,1.308,0,0,0,11.826,4.71v.623A5.768,5.768,0,0,0,7.4,10.939v4.894l-1.772,1.78v.89h15.06v-.89l-1.772-1.78V10.939a5.768,5.768,0,0,0-4.429-5.606V4.71a1.308,1.308,0,0,0-1.329-1.335Zm1.772,16.018H11.383a1.772,1.772,0,1,0,3.543,0Z" transform="translate(-5.625 -3.375)" fill="#adadad"/>
</svg>
