<svg xmlns="http://www.w3.org/2000/svg" width="15.942" height="17.547" viewBox="0 0 15.942 17.547">
  <g id="Icon_feather-share-2" data-name="Icon feather-share-2" transform="translate(-3.75 -2.25)">
    <path id="Path_27" data-name="Path 27" d="M27.314,5.407A2.407,2.407,0,1,1,24.907,3a2.407,2.407,0,0,1,2.407,2.407Z" transform="translate(-8.372 0)" fill="none" stroke="#c1c1c1" stroke-linecap="round" stroke-linejoin="round" stroke-width="1.5"/>
    <path id="Path_28" data-name="Path 28" d="M9.314,15.907A2.407,2.407,0,1,1,6.907,13.5,2.407,2.407,0,0,1,9.314,15.907Z" transform="translate(0 -4.884)" fill="none" stroke="#c1c1c1" stroke-linecap="round" stroke-linejoin="round" stroke-width="1.5"/>
    <path id="Path_29" data-name="Path 29" d="M27.314,26.407A2.407,2.407,0,1,1,24.907,24,2.407,2.407,0,0,1,27.314,26.407Z" transform="translate(-8.372 -9.767)" fill="none" stroke="#c1c1c1" stroke-linecap="round" stroke-linejoin="round" stroke-width="1.5"/>
    <path id="Path_30" data-name="Path 30" d="M12.885,20.265l5.48,3.193" transform="translate(-3.9 -8.03)" fill="none" stroke="#c1c1c1" stroke-linecap="round" stroke-linejoin="round" stroke-width="1.5"/>
    <path id="Path_31" data-name="Path 31" d="M18.357,9.765l-5.472,3.193" transform="translate(-3.9 -3.146)" fill="none" stroke="#c1c1c1" stroke-linecap="round" stroke-linejoin="round" stroke-width="1.5"/>
  </g>
</svg>
