<svg id="sold" xmlns="http://www.w3.org/2000/svg" width="53.958" height="46.871" viewBox="0 0 53.958 46.871">
  <path id="Path_42" data-name="Path 42" d="M48.224,20.677H46.455L30.9,6.126a4.224,4.224,0,0,0,.421-1.844,4.285,4.285,0,1,0-8.57.006,4.194,4.194,0,0,0,.421,1.837L7.623,20.677H5.854A5.879,5.879,0,0,0,0,26.5V41.107a5.827,5.827,0,0,0,5.854,5.764h42.37a5.723,5.723,0,0,0,5.734-5.764V26.5A5.775,5.775,0,0,0,48.224,20.677ZM27.039,1.936A2.354,2.354,0,1,1,24.685,4.29,2.354,2.354,0,0,1,27.039,1.936Zm-2.652,5.7a4.237,4.237,0,0,0,5.3,0L43.63,20.677H10.449ZM52.027,41.077a3.863,3.863,0,0,1-3.863,3.863H5.794a3.863,3.863,0,0,1-3.863-3.863V26.471a3.863,3.863,0,0,1,3.863-3.863h42.37a3.863,3.863,0,0,1,3.863,3.863Zm0,0" transform="translate(0 0)" fill="#fff"/>
  <path id="Path_43" data-name="Path 43" d="M104.4,244.329c0-.374.35-.724,1.207-.724.99,0,1.219.459,1.654.459.531,0,.749-.664.749-.99,0-.942-1.763-1.062-2.4-1.062-1.509,0-3.09.688-3.09,2.5,0,2.825,3.826,2.571,3.826,4.032,0,.579-.616.8-1.171.8-1.123,0-1.485-.893-2.052-.893-.459,0-.821.6-.821,1.014,0,.8,1.328,1.569,2.909,1.569,1.75,0,3.018-.942,3.018-2.68C108.227,245.307,104.4,245.536,104.4,244.329Zm0,0" transform="translate(-89.952 -212.798)" fill="#fff"/>
  <path id="Path_44" data-name="Path 44" d="M170.951,242.609c-1.666,0-2.951.772-2.951,2.849v3.2c0,2.076,1.285,2.849,2.951,2.849s2.964-.772,2.964-2.849v-3.2C173.915,243.382,172.617,242.609,170.951,242.609Zm1.153,6.048c0,.833-.416,1.207-1.093,1.207s-1.08-.374-1.08-1.207v-3.2c0-.833.4-1.207,1.08-1.207s1.093.374,1.093,1.207Zm0,0" transform="translate(-147.721 -213.324)" fill="#fff"/>
  <path id="Path_45" data-name="Path 45" d="M241.684,249.813h-2.752v-6.636c0-.4-.5-.568-.966-.568s-.966.169-.966.568v7.677c0,.386.459.528.869.528h3.815c.362,0,.543-.374.543-.785S242.046,249.813,241.684,249.813Zm0,0" transform="translate(-208.391 -213.324)" fill="#fff"/>
  <path id="Path_46" data-name="Path 46" d="M299.909,242.289h-2.137c-.495,0-.772.3-.772.606v7.689c0,.3.278.516.772.516h2.137c1.665,0,3.005-.721,3.005-2.8v-3.127A2.679,2.679,0,0,0,299.909,242.289Zm1.074,6.014c0,.821-.4,1.228-1.074,1.228h-1.1v-5.553h1.1c.676,0,1.074.377,1.074,1.2Zm0,0" transform="translate(-261.149 -213.042)" fill="#fff"/>
</svg>
