<svg xmlns="http://www.w3.org/2000/svg" width="24.494" height="24.494" viewBox="0 0 24.494 24.494">
  <g id="twitter" transform="translate(-0.001)">
    <circle id="Ellipse_29" data-name="Ellipse 29" cx="12.247" cy="12.247" r="12.247" transform="translate(0.001 0)" fill="#55acee"/>
    <g id="Group_246" data-name="Group 246" transform="translate(5.481 7.429)">
      <path id="Path_54" data-name="Path 54" d="M39.372,35.4a5.841,5.841,0,0,1-1.681.46,2.935,2.935,0,0,0,1.287-1.619,5.86,5.86,0,0,1-1.859.71,2.93,2.93,0,0,0-4.989,2.67A8.31,8.31,0,0,1,26.1,34.564,2.931,2.931,0,0,0,27,38.472a2.907,2.907,0,0,1-1.326-.367c0,.012,0,.025,0,.037a2.929,2.929,0,0,0,2.348,2.87,2.939,2.939,0,0,1-1.322.051A2.93,2.93,0,0,0,29.437,43.1,5.909,5.909,0,0,1,25.1,44.308a8.325,8.325,0,0,0,12.816-7.014c0-.127,0-.253-.009-.379A5.936,5.936,0,0,0,39.372,35.4Z" transform="translate(-25.103 -34.028)" fill="#f1f2f2"/>
    </g>
  </g>
</svg>
